# WaveFront *.obj file (generated by Cinema 4D)

mtllib ./model.mtl

v -0.19140000641346 0.42643520236015 0.19140000641346
v 0.19140000641346 0.42643520236015 0.19140000641346
v 0.19140000641346 0.42643520236015 -0.19140000641346
v -0.19140000641346 0.42643520236015 -0.19140000641346
v -0.19140000641346 0.44353035092354 0.25519999861717
v 0.19140000641346 0.44353035092354 0.25519999861717
v 0.22329999506474 0.44353035092354 0.24665242433548
v 0.24665242433548 0.44353035092354 0.22329999506474
v 0.25519999861717 0.44353035092354 0.19140000641346
v 0.25519999861717 0.44353035092354 -0.19140000641346
v 0.24665242433548 0.44353035092354 -0.22329999506474
v 0.22329999506474 0.44353035092354 -0.24665242433548
v 0.19140000641346 0.44353035092354 -0.25519999861717
v -0.19140000641346 0.44353035092354 -0.25519999861717
v -0.22329999506474 0.44353035092354 -0.24665242433548
v -0.24665242433548 0.44353035092354 -0.22329999506474
v -0.25519999861717 0.44353035092354 -0.19140000641346
v -0.25519999861717 0.44353035092354 0.19140000641346
v -0.24665242433548 0.44353035092354 0.22329999506474
v -0.22329999506474 0.44353035092354 0.24665242433548
v -0.19140000641346 0.49023520946503 0.30190482735634
v 0.19140000641346 0.49023520946503 0.30190482735634
v 0.24665242433548 0.49023520946503 0.28709998726845
v 0.28709998726845 0.49023520946503 0.24665242433548
v 0.30190482735634 0.49023520946503 0.19140000641346
v 0.30190482735634 0.49023520946503 -0.19140000641346
v 0.28709998726845 0.49023520946503 -0.24665242433548
v 0.24665242433548 0.49023520946503 -0.28709998726845
v 0.19140000641346 0.49023520946503 -0.30190482735634
v -0.19140000641346 0.49023520946503 -0.30190482735634
v -0.24665242433548 0.49023520946503 -0.28709998726845
v -0.28709998726845 0.49023520946503 -0.24665242433548
v -0.30190482735634 0.49023520946503 -0.19140000641346
v -0.30190482735634 0.49023520946503 0.19140000641346
v -0.28709998726845 0.49023520946503 0.24665242433548
v -0.24665242433548 0.49023520946503 0.28709998726845
v -0.19140000641346 0.55403518676758 0.31900000572205
v 0.19140000641346 0.55403518676758 0.31900000572205
v 0.25519999861717 0.55403518676758 0.30190482735634
v 0.30190482735634 0.55403518676758 0.25519999861717
v 0.31900000572205 0.55403518676758 0.19140000641346
v 0.31900000572205 0.55403518676758 -0.19140000641346
v 0.30190482735634 0.55403518676758 -0.25519999861717
v 0.25519999861717 0.55403518676758 -0.30190482735634
v 0.19140000641346 0.55403518676758 -0.31900000572205
v -0.19140000641346 0.55403518676758 -0.31900000572205
v -0.25519999861717 0.55403518676758 -0.30190482735634
v -0.30190482735634 0.55403518676758 -0.25519999861717
v -0.31900000572205 0.55403518676758 -0.19140000641346
v -0.31900000572205 0.55403518676758 0.19140000641346
v -0.30190482735634 0.55403518676758 0.25519999861717
v -0.25519999861717 0.55403518676758 0.30190482735634
v -0.19140000641346 2.85083508491516 0.31900000572205
v 0.19140000641346 2.85083508491516 0.31900000572205
v 0.25519999861717 2.85083508491516 0.30190482735634
v 0.30190482735634 2.85083508491516 0.25519999861717
v 0.31900000572205 2.85083508491516 0.19140000641346
v 0.31900000572205 2.85083508491516 -0.19140000641346
v 0.30190482735634 2.85083508491516 -0.25519999861717
v 0.25519999861717 2.85083508491516 -0.30190482735634
v 0.19140000641346 2.85083508491516 -0.31900000572205
v -0.19140000641346 2.85083508491516 -0.31900000572205
v -0.25519999861717 2.85083508491516 -0.30190482735634
v -0.30190482735634 2.85083508491516 -0.25519999861717
v -0.31900000572205 2.85083508491516 -0.19140000641346
v -0.31900000572205 2.85083508491516 0.19140000641346
v -0.30190482735634 2.85083508491516 0.25519999861717
v -0.25519999861717 2.85083508491516 0.30190482735634
v -0.19140000641346 2.914635181427 0.30190482735634
v 0.19140000641346 2.914635181427 0.30190482735634
v 0.24665242433548 2.914635181427 0.28709998726845
v 0.28709998726845 2.914635181427 0.24665242433548
v 0.30190482735634 2.914635181427 0.19140000641346
v 0.30190482735634 2.914635181427 -0.19140000641346
v 0.28709998726845 2.914635181427 -0.24665242433548
v 0.24665242433548 2.914635181427 -0.28709998726845
v 0.19140000641346 2.914635181427 -0.30190482735634
v -0.19140000641346 2.914635181427 -0.30190482735634
v -0.24665242433548 2.914635181427 -0.28709998726845
v -0.28709998726845 2.914635181427 -0.24665242433548
v -0.30190482735634 2.914635181427 -0.19140000641346
v -0.30190482735634 2.914635181427 0.19140000641346
v -0.28709998726845 2.914635181427 0.24665242433548
v -0.24665242433548 2.914635181427 0.28709998726845
v -0.19140000641346 2.96133995056152 0.25519999861717
v 0.19140000641346 2.96133995056152 0.25519999861717
v 0.22329999506474 2.96133995056152 0.24665242433548
v 0.24665242433548 2.96133995056152 0.22329999506474
v 0.25519999861717 2.96133995056152 0.19140000641346
v 0.25519999861717 2.96133995056152 -0.19140000641346
v 0.24665242433548 2.96133995056152 -0.22329999506474
v 0.22329999506474 2.96133995056152 -0.24665242433548
v 0.19140000641346 2.96133995056152 -0.25519999861717
v -0.19140000641346 2.96133995056152 -0.25519999861717
v -0.22329999506474 2.96133995056152 -0.24665242433548
v -0.24665242433548 2.96133995056152 -0.22329999506474
v -0.25519999861717 2.96133995056152 -0.19140000641346
v -0.25519999861717 2.96133995056152 0.19140000641346
v -0.24665242433548 2.96133995056152 0.22329999506474
v -0.22329999506474 2.96133995056152 0.24665242433548
v -0.19140000641346 2.97843527793884 0.19140000641346
v 0.19140000641346 2.97843527793884 0.19140000641346
v 0.19140000641346 2.97843527793884 -0.19140000641346
v -0.19140000641346 2.97843527793884 -0.19140000641346
# 104 vertices

vn -0.13083827495575 -0.98273223638535 0.13083828985691
vn -0.06627108901739 -0.86462771892548 0.49802312254906
vn 0.06627108901739 -0.86462771892548 0.4980231821537
vn 0.13083828985691 -0.98273223638535 0.13083827495575
vn -0.11370193958282 -0.49759870767593 0.85992288589478
vn 0.11370194703341 -0.49759870767593 0.85992288589478
vn -0.12949877977371 -0.1294988244772 0.98308706283569
vn 0.12949879467487 -0.1294988244772 0.98308706283569
vn -0.12949879467487 0.12949857115746 0.98308706283569
vn 0.12949879467487 0.12949857115746 0.98308706283569
vn -0.11370193958282 0.49759888648987 0.85992276668549
vn 0.11370193958282 0.49759891629219 0.85992276668549
vn -0.06627119332552 0.86462724208832 0.49802392721176
vn 0.06627119332552 0.86462730169296 0.49802389740944
vn -0.1308396011591 0.98273187875748 0.1308396011591
vn 0.1308396011591 0.98273187875748 0.1308396011591
vn 0.24911566078663 -0.86704415082932 0.43148100376129
vn 0.57735025882721 0.57735025882721 -0.57735025882721
vn 0.43251669406891 -0.50171440839767 0.74914079904556
vn 0.49571284651756 -0.13067300617695 0.85859966278076
vn 0.49571290612221 0.13067276775837 0.85859966278076
vn 0.43251663446426 0.50171452760696 0.74914073944092
vn 0.24911604821682 0.86704367399216 0.43148165941238
vn -0.57735025882721 -0.57735025882721 0.57735025882721
vn 0.43148100376129 -0.86704415082932 0.24911564588547
vn 0.74914085865021 -0.50171434879303 0.43251666426659
vn 0.85859966278076 -0.13067300617695 0.49571284651756
vn 0.85859966278076 0.13067276775837 0.49571290612221
vn 0.74914073944092 0.50171458721161 0.43251660466194
vn 0.43148165941238 0.86704367399216 0.2491160184145
vn 0 0 -1
vn 0.49802312254906 -0.86462771892548 0.06627108901739
vn -0.57902371883392 -0.57398873567581 0.57902371883392
vn 0.85992288589478 -0.49759870767593 0.11370193958282
vn 0.98308706283569 -0.1294988244772 0.12949877977371
vn 0.98308706283569 0.12949857115746 0.12949879467487
vn 0.85992276668549 0.49759888648987 0.11370193958282
vn 0.49802392721176 0.86462724208832 0.06627119332552
vn -0.70710676908493 -0.70710676908493 0
vn 0.4980231821537 -0.86462771892548 -0.06627108901739
vn 0.13083827495575 -0.98273223638535 -0.13083828985691
vn 0.85992288589478 -0.49759870767593 -0.11370195448399
vn 0.98308706283569 -0.1294988244772 -0.12949879467487
vn 0.98308706283569 0.12949857115746 -0.12949879467487
vn 0.85992276668549 0.49759891629219 -0.11370193958282
vn 0.49802389740944 0.86462730169296 -0.06627119332552
vn 0.1308396011591 0.98273187875748 -0.1308396011591
vn 0.43148100376129 -0.86704415082932 -0.24911566078663
vn 0 -0.60770642757416 0.79416179656982
vn 0.74914079904556 -0.50171440839767 -0.43251672387123
vn 0.85859960317612 -0.13067302107811 -0.49571284651756
vn 0.85859966278076 0.13067276775837 -0.49571290612221
vn 0.74914073944092 0.50171452760696 -0.43251663446426
vn 0.43148165941238 0.86704367399216 -0.24911604821682
vn 0.24911564588547 -0.86704415082932 -0.43148100376129
vn 0.43251666426659 -0.50171434879303 -0.74914085865021
vn 0.49571284651756 -0.13067300617695 -0.85859966278076
vn 0.49571290612221 0.13067276775837 -0.85859966278076
vn 0.43251660466194 0.50171458721161 -0.74914073944092
vn 0.2491160184145 0.86704367399216 -0.43148165941238
vn 0.06627108901739 -0.86462771892548 -0.49802312254906
vn 0 -0.6653705239296 0.74651324748993
vn 0.11370193958282 -0.49759870767593 -0.85992288589478
vn 0.12949877977371 -0.1294988244772 -0.98308706283569
vn 0.12949879467487 0.12949857115746 -0.98308706283569
vn 0.11370193958282 0.49759888648987 -0.85992276668549
vn 0.06627119332552 0.86462724208832 -0.49802392721176
vn 0 -0.51994693279266 0.85419857501984
vn -0.06627108901739 -0.86462771892548 -0.4980231821537
vn -0.13083828985691 -0.98273223638535 -0.13083827495575
vn -0.11370194703341 -0.49759870767593 -0.85992288589478
vn -0.12949879467487 -0.1294988244772 -0.98308706283569
vn -0.12949879467487 0.12949857115746 -0.98308706283569
vn -0.11370193958282 0.49759891629219 -0.85992276668549
vn -0.06627119332552 0.86462730169296 -0.49802389740944
vn -0.1308396011591 0.98273187875748 -0.1308396011591
vn -0.24911566078663 -0.86704415082932 -0.43148100376129
vn -1 0 0
vn -0.43251669406891 -0.50171440839767 -0.74914079904556
vn -0.49571284651756 -0.13067300617695 -0.85859966278076
vn -0.49571290612221 0.13067276775837 -0.85859966278076
vn -0.43251663446426 0.50171452760696 -0.74914073944092
vn -0.24911604821682 0.86704367399216 -0.43148165941238
vn -0.43148100376129 -0.86704415082932 -0.24911564588547
vn -0.74914085865021 -0.50171434879303 -0.43251666426659
vn -0.85859966278076 -0.13067300617695 -0.49571284651756
vn -0.85859966278076 0.13067276775837 -0.49571290612221
vn -0.74914073944092 0.50171458721161 -0.43251660466194
vn -0.43148165941238 0.86704367399216 -0.2491160184145
vn -0.49802312254906 -0.86462771892548 -0.06627108901739
vn 1 0.0000000140104 -0.0000000140104
vn -0.85992288589478 -0.49759870767593 -0.11370193958282
vn -0.98308706283569 -0.1294988244772 -0.12949877977371
vn -0.98308706283569 0.12949857115746 -0.12949879467487
vn -0.85992276668549 0.49759888648987 -0.11370193958282
vn -0.49802392721176 0.86462724208832 -0.06627119332552
vn 0 0 1
vn -0.4980231821537 -0.86462771892548 0.06627108901739
vn -0.85992288589478 -0.49759870767593 0.11370195448399
vn -0.98308706283569 -0.1294988244772 0.12949879467487
vn -0.98308706283569 0.12949857115746 0.12949879467487
vn -0.85992276668549 0.49759891629219 0.11370193958282
vn -0.49802389740944 0.86462730169296 0.06627119332552
vn -0.43148100376129 -0.86704415082932 0.24911566078663
vn 0 1 0
vn -0.74914079904556 -0.50171440839767 0.43251672387123
vn -0.85859960317612 -0.13067302107811 0.49571284651756
vn -0.85859966278076 0.13067276775837 0.49571290612221
vn -0.74914073944092 0.50171452760696 0.43251663446426
vn -0.43148165941238 0.86704367399216 0.24911604821682
vn 0 -1 0
vn -0.24911564588547 -0.86704415082932 0.43148100376129
vn 0 0 0
vn -0.43251666426659 -0.50171434879303 0.74914085865021
vn -0.49571284651756 -0.13067300617695 0.85859966278076
vn -0.49571290612221 0.13067276775837 0.85859966278076
vn -0.43251660466194 0.50171458721161 0.74914073944092
vn -0.2491160184145 0.86704367399216 0.43148165941238
vn 0 -1 0
vn 0 -1 0
vn 0.00253944261931 0 0.99999678134918
# 121 normals

vt 0 0 0
vt 0 0.02476632595062 0
vt 0.65634077787399 0.02476632595062 0
vt 0.65634077787399 0 0
vt 0 0.04953265190125 0
vt 0.65634077787399 0.04953265190125 0
vt 0 0.07429885864258 0
vt 0.65634077787399 0.07429885864258 0
vt 0 0.92570114135742 0
vt 0.65634077787399 0.92570114135742 0
vt 0 0.9504674077034 0
vt 0.65634077787399 0.9504674077034 0
vt 0 0.97523373365402 0
vt 0.65634077787399 0.97523373365402 0
vt 0 1 0
vt 0.65634077787399 1 0
vt 0.7136173248291 0 0
vt 0.77089387178421 0.02476632595062 0
vt 0.77089387178421 0 0
vt 0.77089387178421 0.04953265190125 0
vt 0.77089387178421 0.07429885864258 0
vt 0.77089387178421 0.92570114135742 0
vt 0.77089387178421 0.9504674077034 0
vt 0.77089387178421 0.97523373365402 0
vt 0.7136173248291 1 0
vt 0.82817035913467 0 0
vt 0.88544690608978 0.02476632595062 0
vt 0.88544690608978 0 0
vt 0.88544690608978 0.04953265190125 0
vt 0.88544690608978 0.07429885864258 0
vt 0.88544690608978 0.92570114135742 0
vt 0.88544690608978 0.9504674077034 0
vt 0.88544690608978 0.97523373365402 0
vt 0.82817035913467 1 0
vt 0.94272345304489 0 0
vt 1 0.02476632595062 0
vt 1 0 0
vt 1 0.04953265190125 0
vt 1 0.07429885864258 0
vt 1 0.92570114135742 0
vt 1 0.9504674077034 0
vt 1 0.97523373365402 0
vt 0.94272345304489 1 0
vt 1 1 0
# 44 texture coordinates

o 立方体
usemtl default
f 2/4/4 6/3/3 5/2/2 1/1/1
f 6/3/3 22/6/6 21/5/5 5/2/2
f 22/6/6 38/8/8 37/7/7 21/5/5
f 38/8/8 54/10/10 53/9/9 37/7/7
f 54/10/10 70/12/12 69/11/11 53/9/9
f 70/12/12 86/14/14 85/13/13 69/11/11
f 86/14/14 102/16/16 101/15/15 85/13/13
f 7/18/17 6/3/3 2/17/4
f 7/18/17 23/20/19 22/6/6 6/3/3
f 23/20/19 39/21/20 38/8/8 22/6/6
f 39/21/20 55/22/21 54/10/10 38/8/8
f 55/22/21 71/23/22 70/12/12 54/10/10
f 71/23/22 87/24/23 86/14/14 70/12/12
f 87/24/23 102/25/16 86/14/14
f 8/27/25 7/18/17 2/26/4
f 8/27/25 24/29/26 23/20/19 7/18/17
f 24/29/26 40/30/27 39/21/20 23/20/19
f 40/30/27 56/31/28 55/22/21 39/21/20
f 56/31/28 72/32/29 71/23/22 55/22/21
f 72/32/29 88/33/30 87/24/23 71/23/22
f 88/33/30 102/34/16 87/24/23
f 9/36/32 8/27/25 2/35/4
f 9/36/32 25/38/34 24/29/26 8/27/25
f 25/38/34 41/39/35 40/30/27 24/29/26
f 41/39/35 57/40/36 56/31/28 40/30/27
f 57/40/36 73/41/37 72/32/29 56/31/28
f 73/41/37 89/42/38 88/33/30 72/32/29
f 89/42/38 102/43/16 88/33/30
f 3/4/41 10/3/40 9/2/32 2/1/4
f 10/3/40 26/6/42 25/5/34 9/2/32
f 26/6/42 42/8/43 41/7/35 25/5/34
f 42/8/43 58/10/44 57/9/36 41/7/35
f 58/10/44 74/12/45 73/11/37 57/9/36
f 74/12/45 90/14/46 89/13/38 73/11/37
f 90/14/46 103/16/47 102/15/16 89/13/38
f 11/18/48 10/3/40 3/17/41
f 11/18/48 27/20/50 26/6/42 10/3/40
f 27/20/50 43/21/51 42/8/43 26/6/42
f 43/21/51 59/22/52 58/10/44 42/8/43
f 59/22/52 75/23/53 74/12/45 58/10/44
f 75/23/53 91/24/54 90/14/46 74/12/45
f 91/24/54 103/25/47 90/14/46
f 12/27/55 11/18/48 3/26/41
f 12/27/55 28/29/56 27/20/50 11/18/48
f 28/29/56 44/30/57 43/21/51 27/20/50
f 44/30/57 60/31/58 59/22/52 43/21/51
f 60/31/58 76/32/59 75/23/53 59/22/52
f 76/32/59 92/33/60 91/24/54 75/23/53
f 92/33/60 103/34/47 91/24/54
f 13/36/61 12/27/55 3/35/41
f 13/36/61 29/38/63 28/29/56 12/27/55
f 29/38/63 45/39/64 44/30/57 28/29/56
f 45/39/64 61/40/65 60/31/58 44/30/57
f 61/40/65 77/41/66 76/32/59 60/31/58
f 77/41/66 93/42/67 92/33/60 76/32/59
f 93/42/67 103/43/47 92/33/60
f 4/4/70 14/3/69 13/2/61 3/1/41
f 14/3/69 30/6/71 29/5/63 13/2/61
f 30/6/71 46/8/72 45/7/64 29/5/63
f 46/8/72 62/10/73 61/9/65 45/7/64
f 62/10/73 78/12/74 77/11/66 61/9/65
f 78/12/74 94/14/75 93/13/67 77/11/66
f 94/14/75 104/16/76 103/15/47 93/13/67
f 15/18/77 14/3/69 4/17/70
f 15/18/77 31/20/79 30/6/71 14/3/69
f 31/20/79 47/21/80 46/8/72 30/6/71
f 47/21/80 63/22/81 62/10/73 46/8/72
f 63/22/81 79/23/82 78/12/74 62/10/73
f 79/23/82 95/24/83 94/14/75 78/12/74
f 95/24/83 104/25/76 94/14/75
f 16/27/84 15/18/77 4/26/70
f 16/27/84 32/29/85 31/20/79 15/18/77
f 32/29/85 48/30/86 47/21/80 31/20/79
f 48/30/86 64/31/87 63/22/81 47/21/80
f 64/31/87 80/32/88 79/23/82 63/22/81
f 80/32/88 96/33/89 95/24/83 79/23/82
f 96/33/89 104/34/76 95/24/83
f 17/36/90 16/27/84 4/35/70
f 17/36/90 33/38/92 32/29/85 16/27/84
f 33/38/92 49/39/93 48/30/86 32/29/85
f 49/39/93 65/40/94 64/31/87 48/30/86
f 65/40/94 81/41/95 80/32/88 64/31/87
f 81/41/95 97/42/96 96/33/89 80/32/88
f 97/42/96 104/43/76 96/33/89
f 1/4/1 18/3/98 17/2/90 4/1/70
f 18/3/98 34/6/99 33/5/92 17/2/90
f 34/6/99 50/8/100 49/7/93 33/5/92
f 50/8/100 66/10/101 65/9/94 49/7/93
f 66/10/101 82/12/102 81/11/95 65/9/94
f 82/12/102 98/14/103 97/13/96 81/11/95
f 98/14/103 101/16/15 104/15/76 97/13/96
f 19/18/104 18/3/98 1/17/1
f 19/18/104 35/20/106 34/6/99 18/3/98
f 35/20/106 51/21/107 50/8/100 34/6/99
f 51/21/107 67/22/108 66/10/101 50/8/100
f 67/22/108 83/23/109 82/12/102 66/10/101
f 83/23/109 99/24/110 98/14/103 82/12/102
f 99/24/110 101/25/15 98/14/103
f 20/27/112 19/18/104 1/26/1
f 20/27/112 36/29/114 35/20/106 19/18/104
f 36/29/114 52/30/115 51/21/107 35/20/106
f 52/30/115 68/31/116 67/22/108 51/21/107
f 68/31/116 84/32/117 83/23/109 67/22/108
f 84/32/117 100/33/118 99/24/110 83/23/109
f 100/33/118 101/34/15 99/24/110
f 5/36/2 20/27/112 1/35/1
f 5/36/2 21/38/5 36/29/114 20/27/112
f 21/38/5 37/39/7 52/30/115 36/29/114
f 37/39/7 53/40/9 68/31/116 52/30/115
f 53/40/9 69/41/11 84/32/117 68/31/116
f 69/41/11 85/42/13 100/33/118 84/32/117
f 85/42/13 101/43/15 100/33/118
f 102/37/16 103/44/47 104/15/76 101/1/15
f 4/1/70 3/37/41 2/44/4 1/15/1

